<svg xmlns="http://www.w3.org/2000/svg" viewBox="0 0 64 64">
  <defs>
    <linearGradient id="g" x1="0" y1="0" x2="1" y2="1">
      <stop offset="0%" stop-color="#6ee3ec"/>
      <stop offset="100%" stop-color="#14b8c4"/>
    </linearGradient>
  </defs>
  <rect width="64" height="64" rx="14" fill="url(#g)"/>
  <circle cx="32" cy="32" r="22" fill="#eefdfd"/>
  <path d="M14 40c6-1 8-7 14-7 5 0 6 4 11 4 4 0 6-2 8-4 1 7-4 13-11 13-4 0-6-2-10-2-4 0-8 2-12-4Z" fill="#14b8c4"/>
  <path d="M40 18c4-3 9-3 12 1-3 1-5 3-6 6-2-3-4-5-6-7Z" fill="#0e93a3"/>
  <circle cx="27" cy="27" r="2.6" fill="#117585"/>
</svg>
